<svg id="Layer_2" data-name="Layer 2" xmlns="http://www.w3.org/2000/svg" viewBox="0 0 190.38 179.24"><defs><style>.cls-1{fill:none;}.cls-2{fill:#fff;}</style></defs><line class="cls-1" x1="190.38" y1="64.19" x2="176.82" y2="59.87"/><path class="cls-2" d="M218.41,177.64l10,2.81c6.84-16.72,4.38-29.37-1.55-38.71-10.48-16.5-31.78-22.67-31.78-22.67,15,23.42,8.15,32,8.15,32-4.74-4.17-9.47-21.41-9.47-21.41-7.58,7-8.15,27.86-8.15,27.86-.19,23.49,20.65,33,20.65,33l1.92,1a5.19,5.19,0,0,1-.36.46,78.57,78.57,0,0,1-8.67,9c-12.35-9.16-30.22-17.06-55.77-17.06-21.05,0-38.18,8.8-50.34,18a78.3,78.3,0,0,1-27.57-59.61c0-43.6,35.85-78.94,80.08-78.94a80.39,80.39,0,0,1,57.23,23.72,86.62,86.62,0,0,0-24.58-1.78c-48.92,2.65-72.06,44.71-72.06,44.71s20.08,11.37,57,4.17c0,0-8.79,25.77-69,30.51,0,0-.74,24.08,1,29.74l9.64-5.36-.27-14.91s66.34.76,84.69-64.61c0,0-25.93,25.2-64.81,14.4,0,0,19.57-25.45,54.24-28.23A77.62,77.62,0,0,1,216.69,102h0a62.36,62.36,0,0,1,14.09,8.52c.61.5,1.05.88,1.31,1.13s.27.24.3.27a24.91,24.91,0,0,0-3.49-8,32.57,32.57,0,0,0-3.52-4.54A91,91,0,0,0,145.22,52C95,52,54.33,92.16,54.33,141.66a88.83,88.83,0,0,0,30.61,67.07A95.32,95.32,0,0,0,72.2,222.84L80.92,229c3.18-3.37,7.31-8.33,12.82-13.44a92,92,0,0,0,104.33-.95,82.89,82.89,0,0,1,12.32,12.81l7.83-6.82a93.38,93.38,0,0,0-11.36-13.07,89.29,89.29,0,0,0,10-10.69l7.69-11.38,0,0a36.74,36.74,0,0,1-9.55-1.73c.08-.11.15-.23.22-.35-16.13-5.93-17.5-22-17.5-22,6.06,6.07,12.31,6.45,12.31,6.45,3.41-2.28,5.12-22.93,5.12-22.93,12.31,19.9,1.14,32.21,1.14,32.21ZM145.53,221.3a80.5,80.5,0,0,1-43.48-12.64c10.82-7.85,25.56-14.48,45.94-14.18,17.15.25,31.29,6.64,41.74,13.72A80.56,80.56,0,0,1,145.53,221.3Z" transform="translate(-54.33 -52.04)"/><path class="cls-2" d="M136.43,208.12a5.31,5.31,0,1,1-5.3-5.3A5.3,5.3,0,0,1,136.43,208.12Z" transform="translate(-54.33 -52.04)"/><circle class="cls-2" cx="103.99" cy="156.08" r="5.31"/></svg>